<mxfile host="app.diagrams.net" agent="Mozilla/5.0 (Windows NT 10.0; Win64; x64) AppleWebKit/537.36 (KHTML, like Gecko) Chrome/130.0.0.0 Safari/537.36 Edg/130.0.0.0" version="24.8.4">
  <diagram id="C5RBs43oDa-KdzZeNtuy" name="Page-1">
    <mxGraphModel dx="901" dy="587" grid="1" gridSize="10" guides="1" tooltips="1" connect="1" arrows="1" fold="1" page="1" pageScale="1" pageWidth="827" pageHeight="1169" math="0" shadow="0">
      <root>
        <mxCell id="WIyWlLk6GJQsqaUBKTNV-0" />
        <mxCell id="WIyWlLk6GJQsqaUBKTNV-1" parent="WIyWlLk6GJQsqaUBKTNV-0" />
        <mxCell id="TqFiCtSlUsyCCOBjlSMV-1" value="" style="shape=image;verticalLabelPosition=bottom;verticalAlign=top;imageAspect=0;aspect=fixed;image=data:image/png,iVBORw0KGgoAAAANSUhEUgAAAKsAAACrCAMAAAAuNpwrAAAAaVBMVEX///9EqDM6pSZBpy89pio2pCD3+/f7/fvn8uXw9+8vohbs9evi8OAyoxslnwAroQ9zumnR586m0aBXr0mSyIudzZeNxYXF4cFQrUG83LjY69au1alfslJLqztktFhqt19/v3aGwn4AlgAKIs+bAAANwUlEQVR4nM1d16KiOhSVFHovIkXK/P9HXtIoAgEUOHc9zXEUFnFn92wfjxORF8mzqcvopSivqKqbOCwCWzdU7cybnAQj9hwEoUIAIQLAMT0PlE1cpPb/j2+OsfIJBLCjRPUzs/6a3QfUBsAZW7LKEGH3neTGn7DK1cWXtQKjBbKMseOWSXr38qqF3/T/fk5ZBxCske0EwkFVnN9HVNNjDP7p4s/WfU1vbtcSst3qAqdM75EFNWhMR3Fa8XcOFOSGk6VVW3NJaEer68LCvp5q5gOy1YG4ldYQ8cS+Pn6Tljhysp3oRs+L2QYRQIQFjvtX6N+dYkonbyzQBtlOFFCrz25wFrSgdrmifwfiNZ/LJjSTiRykyqo66OE44UVs7ScQewb54sXAHb5Vf7Jhgpd0hzGYZXgF1RgN9/b6jR+NVg9HE31gv7bEgDw1iE4XW6t5K1hoeVSJl1NncmOUjT9jvHeQVZCXnC0Iqh1kcY1d3N3fHaR1KpSw/x+CfM/CKkQQgqU7/gbNsNJW8cxICGbwQcapR/sreG3vLr60MLnIDdNDoZ60dupVAX9ENYV7qXbwXtepLwZ7utNROXJLAnSAaveYSrZ+nzMQe+PbwX9jqu9DVIlpeF7KNakU3EssRCONdUgAOMzoZ29Rl4QfahpHnlBkoy8x+IJqJwfRr/ogjrogL10VfT0tXSK2XjK8lh8VAEFW+Y2s2uAuynM8t+o8+mWvM2/e2GxHf+9WVp+A5k87rAug2HWQ4wI/yeyl0CWPm+FlvdrhCKyRBV/5B/zmxtg0IQe8lp989AT1PJQ9QBZ/QdbgrpT1YUbBhkhpjYkY4D4L+wmzOEy1ElzrCVdUC8Wy7B5p4bv2/abx/Tp6m56zGIHLgQ+S1XyvWeQ6aGzYpksfzG3LMFTVMCw7D7KwebkuPsYXgmMbrMKAb2y9mq6ruE7qAhAVm+Gophpp+4JoM6QZkzUPqC7t6SgrXKHYREQ9QM9JVlIaU+RFEzn7tQN8788gFGD4svWJDPRetlHShYKuG+8h+9DszHd3swXlXnMbEAET6zqVV1NolID4/BA4TbA7K6HqDd671UC075o6DfdAs8TVFbY2xF0wWB2NPvT4tXOjmfH21bpvl5EDXGdNbAFE/AtXW2C+vgmY7QTskwS0RxkkzOyIsLq3sewBuM+lv9zwy5SU4Xt73AUIt+PblAf8Yhd1K0hy1AgAjLEr1HTg/5A8C2pHzpOty2srBtOF9EMu3VrrmuhV+U37jONYPKvxUyxnJGDH0prJxmV4yqdbyTd/xQ5sXSe2SNPOCzZTZYeDA+UmgWjWThOhqPS3nupHNNsKAUWyzatH2HSiNlz2Us9FuO2HSaXA/1cWuX49T4rU3STrresCPbu1CmW/t1QtKu/kI4W9Ge2gw473ZdC3crSo3GUbNV5G1XTiMvtV5+af/5DqFllzM/wiCcwnzyzY2O1CkS5++i7E3IBeyq0CxFLv0MriJkImdpn3YETsU/gahZtvKANn1eHS7DiCiNVaxFfOvGqnXfvMr2Q3VBdalFg9iN+jQA63TGBZAau+iGpnK+UWDMwXVk2fFZ58CtWMa+gQc3dd4Ux7Sn0DOLt1QGpjH2/ijjUpC6Gl+Pos8NhtDc7nnrYX9iMPWAxX8S6pQg0392Rk4evTV37OFZ3Hwwi8N1L7GqG3wHFYs88vNZhzFUXX2r264G/4MpMwlNME6pkQQO45JNdKAEEgLds5n2s1VFZ7rgrbXPoNpf5YtrDg0wxp890F72v2UGcrNRaCethdLNJLZ9HlnR5ZIdteg8pUE/olWzOJBVfZ1QUYkURinV4IDJPRLj5lZrz2l6OQJA1QJYik7ptZ089HAwdyiz9Dl1mvXms2gLt/2UTAoVlnN4WJFIlEFfRCgIUm1cYFfwzCezvUdJkQcFVve/2OT83+6wfN7a1/MuPlcp8PE+GlfopICkLHv9KxWsHcGo2EgPGhvrTDF5blXt3tosUFUCW1UeZxGxURUgjYNuoWFuK6N6r21e0SEyTrEgup4x+wDeWwWoZhAlSI7IsVwlvXN1hfV1iS9ctEbZipsDDqJTWt3eetSaOP+tQEtNMu5AsPGspLEyvZ7TPkXNyE8ol2XROQyudQD8BjYmpmdmr3daPdIijW15WkJ4zeY0HRIJw2TeWiX6oC38BeN7OgUR+W0v//v97/TxW62Be39ixglSp1X2xhqiAUVLWYp0LuzyjOAymlp6f3xgIO/qwmvIiN4sIFkGhY035kzB8HeLSNVNYcDpXbTy+k62bWDbjKAhU3UMx6aazc/5Zc9Rro61zN7BGTZJLp8xXUW0Y2JSU5eHUKYw7DXOXaeSxE/ZpCN+mVx/MXoXlvuMWhKqtaq1Ow3c7D4uBF4CKFN5uQdlHn4nLcAhYCf4Fu5SLYd1ZkVP/zFKIRoQvqA5tcm1Uri5rHy+UpYXEkQGSFcxGF3cq1Xc3FwvqBY061b2YVlcXAvV29PthWX+YaPfjGV+NhB4qWiPAPuCbrOe7Xg2uAcR4cvZjIqn8QyEgM14u/pZ28Bbyk1/tTrurzQwU7zZ1JjENc5xkPfFXD/xake2v5WeDd0QuHTGeVpAt0yV9YLy1ey3U990KasLR2IUt7azZzzHU9kqWNeNpzXhG9tPYmgbpe48AsoCo+jwPw2tv9voukbCDKh8G08wSwDGKAbudqS31t/p5oLLSsf9yowf0xzHqFw0tFdk2Lh9ZU3jYfm/dL7bp6JWn4VORWsjd/HywN/oiXdI1IIakZAP2Ruwpfvbxilpa5giQf/we5jFWu8GWRxkxHnGxNiD7ArPGVxGGovjX9Kk1qIl99WBHsYkOeHA58B74pv4C942YPNpTkCZ/aQyVWDYuTU0bBkloqs3W/Hfs5DklOk6pX6olDUwSIFtVTBdNzPCd7F2zJ1qLBSsa2v1eNkkR9SsG5VWDTdY3FUsHBm/0F3oOGioX58G4VAkmwxSqyfR0U4rIfKhAqzDSgO9NExrrGItkBguEAARqW0UgiOpsB39CTISBJEgpbOkQww1iBBzm1gDq2C11nl2E9Udx3GOd9YIimyTYjwQDsa0A9A7qs/c3kb+q5si+8yPqYQC0q97ak1kKHWA9xOqevL7MjMEbp+cPut4r4pmjGljWR9Kk14TQypyUDCkD+oGzvmtIk6yFRsJBEi8k0oMMDDForQG4Z3JvO0CUKizoDDLx0yOqGot0BOM29HSTr2fdJSTMjy89bzof5PABV91ktS0YVjoaGUJ8B0ah1EpxBz41vCrnkzY/N6J3UsbbFv8bwqlsEIZVJ67Sq3Tk4zPJbn6ND6CNd3vxoSBoHOoDJm9+QNcTOHHNqYwP3YuP1mVOd4uO4UeHSQ7rznllAzFYG6kslIZc1ac6caMulPko+O79Ky10F+Oak/W5Iu/M6af0MThIqAvNMLCDaIsQQXxclqo38PB/6vLVBrL42P6pGZ3p1/joEl4ms1AqQ3b0ofwtygw127LSzwBf5MJIUFlutZYO0EPISdcGOHuNr6h3pxrHDlWK7Op/LBJVH33BsXpEx2pyvs1K8XHhESAo1Yp965+eON48cAn/5g4kHwMf8BfoN6MILPv0Il705CWZ1lIgWJE2pmHggTI9M2H0S39s3GGEv0s35OvJMJRk/5kPXc+hlECnQ28MVzfZEbZBtj9rbPCyvGZadJrXpeqZHxCX3UD+yxfRP07PbIwyPnG+ygowoN7v2OeoO/jkerbFQqZpJwOzQzgh2IR8rQo/KnxIr2rXcWlEBkPayWRUs/TC/PnJN9wxaxHKFnr8Rctx/ph+muW4ZF3mCRr39/RMdtHF7XkgG3cZCpf9MFqpGmmrZ+Q+NsWrx3jUJytu6h1b114EQAI/oLC0tKMIkftKpSGX0erXfCkpQ7Rvy4m7rAH08IZPZArXxMAHowDRXB4CLLxSCltfSc5ADdrlK6ZgrtbErB1i999HZuFrw3DvnB0rnT/QY9z5Q32Wt8gjxsdm4mb9nogeDu/PC/nBF6hOu5/E7SSiLXfNTVPs5Oywswe4WFnU0x5mW5UPJckDPbLKNAUp6mlSHJn7NDkOuYzRlFpNFmx2Y+7iy+fafxcrIRavz3SrgHJoCaLYHFLvdX5smPostMYNEOyjRs0htQ+Uw6DyIt4LA0ZlvB8/kB8JdozF3tutmEGLTdV0TETFXcPdPzwHSPNUy+gFNeyHiGeqXp4fuRdXvd/P+6B3rw3o7ZdO8acQrSot3AERfOCFsLCptzdg10fkkqt9lzmhOFBG/zJInnE6E8+0JHDKjjuZf1bu4eke31QArAoiOS/YPqcdvAX8qqOq+WZFd2dzBFTrFTwGJ6iOeKLwc4PdW9oIag41c3gnAZ+UhN5LkvwO6p5V9tYu5Anxi1e/AkNHjgLg5s+IXNFs/oPE98OvkwomaedfoAui251f6jEb2GzXfMsXRNX2rQbP+8z/fwYzCq4p8albuSe7sBcbJlYVeLXsfiEZlgAC0V9f7Nf7DO78BmWV8R5eamrbebxoMuOUdP2dEoRmJgsF3MRX5aTb/5r6fvK3gsahfoeNaX/5fzOKwgqT0zP10IXZhk92QNF+GYYeRawK0EWOT3+RzXNgG1l8dYePQgrCpIgU7eD70nZDEdNzxM/ubg0tzGHmahU+/egOPpFsISAYGKJHfJkUW/N9+LZCM1Nf1PA/SNMvSNAjyXD+3PPIfTE+3Ct4PZYkAAAAASUVORK5CYII=;rounded=1;strokeColor=#788AA3;fontColor=#46495D;fillColor=#B2C9AB;" vertex="1" parent="WIyWlLk6GJQsqaUBKTNV-1">
          <mxGeometry x="30" y="10" width="101" height="101" as="geometry" />
        </mxCell>
        <mxCell id="TqFiCtSlUsyCCOBjlSMV-3" value="" style="shape=image;verticalLabelPosition=bottom;verticalAlign=top;imageAspect=0;aspect=fixed;image=data:image/png,iVBORw0KGgoAAAANSUhEUgAAAMcAAABvCAMAAABvlCR3AAAAolBMVEX///8AAABEqDMdHR28vLzb29vv7+9GRkbCwsL8/fz4+Pi5ubkPEA+Ym5h1dXU+pivj5uM4pCOoqaiZmZmTlJODhIM0NTR5u3Du9e3U1dROT07i7+C12LHo8ucjnwD3+vZNqz7T5tCZyZNrtGFnaWfLy8sqKyo+Pj4kJCSs1KfB3b6RxoqhzZwvohW41rSKw4NVrEtYWlgkKSMACABer1U0OTMK7xj/AAAGIUlEQVR4nO2ZaZOiOhSGiQtKRDZFEBoQxY3Wtp1x/v9fuzlJkLD0h+l7q7xddZ6qqYGQhPPmLAm2piEIgiAIgiAIgiAIgiAIgiAIgiAIgiDIf0p+fivjzHi1Gf+GJNfyLHtP09TdvSWvtua7ZFu7zAa7UHsbDAa2u7lkr7boe4TlWbuk14uWbAbAdZO/2qTv8FGGLLJugRbbV5sLse2PVxv115TZLk2TGDxwvmx37pUrSctX2/WXlA+mI8i2W1GnsmQ7cLlLfpaQ+PNilG+5FtZNSeDydA+/HvX/IwtDzUhae8YNhLi311j0LcK390G83bWbhUf6ipaxpM/Lxbpuns2mzwfU0xtj9t5isZiN2w3PTt6sfjSdQbs+E0zHWoPR9AsdceqmedzZ+DLIEPe9Z8CULKtLnRCnunYIGY7rPgt1xMQkwMmSvfd30bBayjA4kloIezSCGQTmKVI0arp57D9tJNmnnW57HnxA1br2PLiTU7Xu+pAcKiENHXdyeK419UkNrCZd1vdHMWQinvToAIrauR5/2MPlnLuXvnwON2wjSbuBtWfv8Wod5Bft6hizl1erSC3uikkRHdj/PmvhDYdJtAKnrBypg+w7OqIoOq643yoh9MhU9TokgI3j0vfkxnS43SdgxYTWOkikd3QU8G55zRffB2t1jxTsvxlEi8cajOkdhlOpg6zbOrjlM5B/ly+EsaSVMYLBwzDSc9+TM8t0u1OxnGd4VDqkKkXHmjcL/4/huvKfw3o6bIVX0mTDl47jOqSBTR1sQPScgUY8zPqsDbKgLHvPUiXoCNqtItgnqg5S0KYOv27VFuzKUieY1SvPiITjhI5fTp8OHqUHfrUn5LeahgphcLXjPhlaDjra9Xh8IOb8UDkEdBRyhWodFBwmrYUVHK7VGaLGgo7EKKaj+MOE6H06eCjzOVgceuzfUuuSX+1r/4mw1x9z8AUz3TIqHXsP4t9QdCzBA5YwV2frN2kkJmlUHP3IA4vp8KCAHPU+HTMZWKzHyVmzm+bmJKyNN7u8Nz8ubndHp7/hJTCVU+kY8Uz2ax1g2hTeaY75DlMFYa1jr0wYcROZjjn4BrK+qwOu5xr3i8VHzLvWBrck3G16ZBgB1KuWQo9ntXGXMS90cL97eqXDEyEv/N+rQ9mS6aTWASNZVR12dIyEPxxRCmbCbS3e0ksWv/d8x8bwHZI2U0euHkx8cmodfIvwpQ6wA0oQy8mhzp1zaOTlSmwikvWJmPtKBxdidXUsRCz6cvVWhKhbvCBPk0eQ93zFvkN62M02thTm3PO8+Ukkm9Qh66HQwfr8hj5g00LULvWMwqOQqncn46lDkzt9UwesjKlrDisvFkwctV3MO11y13W756ucH3hb2+BEOSyYeq1D1Hiug96VPisqzhdVwaLM5LVZVQnGWm7xlQ7D79Hhi9K9UCZWU6wiSJmOR8sj4YN/3jbDaq/OBAH21MHOb1LHtN0H6vJQdNpHMluJJQLcM2WAVjo0o2jr0KE/Kxl0qE587+pIym0Qf94aQpIHuOPacgd7RzHip+kRm/xIFR0Q6FwHc8d9+uzDyo9zgvdOlrP5RJzMIEzIqRhNF9y9M03VoelFrYPN4xUH2YnF6UEc5UdMPiSVRqlqXfJ+Lo04z5VN/WPDvz42zRPZXokQh2ezogNChOkYK3104f/xSVlHyCpn1fRYQ4emrzrnXegEhe25/0U80OjUa1SQMnVjltL2Lg8zRvjxcG0uo3VcKdT8smB/g2h6lo4ReL9Qz6PgELDMMqt8EVYbRRUjE6n5qOwJ41VThxlBJygxz28dWFFdy+Zes25drjH8amVfB7sgeLjilx/72j51WZZVnzAcdkcNX23yTEdvNIwty+euXy+Lw2li1R+JrOHPKvJHVWAsLKvOXAc2GDYWKHxPPBhZVl326NIq9uyjc95K94/8cyB/tbLFz1cD97N7eDSMzk2jicJ9tw+/opQ2ohQavpqayqlZo9HfQ9xRvf0pYtxSab/UkwY/8ydeo3zYrpRiu4PHj/xVlGOU2083ZVx32/xH/+VAM7Ikjn/4nz8QBEEQBEEQBEEQBEEQBEEQBEEQBEEQ5C/5B/UiZF3Zdf/1AAAAAElFTkSuQmCC;rounded=1;strokeColor=#788AA3;fontColor=#46495D;fillColor=#B2C9AB;" vertex="1" parent="WIyWlLk6GJQsqaUBKTNV-1">
          <mxGeometry x="30" y="120" width="109.36" height="61" as="geometry" />
        </mxCell>
        <mxCell id="TqFiCtSlUsyCCOBjlSMV-4" value="Extends" style="endArrow=block;endSize=16;endFill=0;html=1;rounded=1;strokeColor=#788AA3;fontColor=#46495D;fillColor=#B2C9AB;" edge="1" parent="WIyWlLk6GJQsqaUBKTNV-1">
          <mxGeometry width="160" relative="1" as="geometry">
            <mxPoint x="160" y="100" as="sourcePoint" />
            <mxPoint x="300" y="100" as="targetPoint" />
          </mxGeometry>
        </mxCell>
        <mxCell id="TqFiCtSlUsyCCOBjlSMV-6" value="Extends" style="endArrow=block;endSize=16;endFill=0;html=1;rounded=1;strokeColor=#788AA3;fontColor=#46495D;fillColor=#B2C9AB;" edge="1" parent="WIyWlLk6GJQsqaUBKTNV-1">
          <mxGeometry width="160" relative="1" as="geometry">
            <mxPoint x="160" y="250" as="sourcePoint" />
            <mxPoint x="300" y="250" as="targetPoint" />
          </mxGeometry>
        </mxCell>
        <mxCell id="TqFiCtSlUsyCCOBjlSMV-8" value="" style="shape=image;verticalLabelPosition=bottom;verticalAlign=top;imageAspect=0;aspect=fixed;image=data:image/png,iVBORw0KGgoAAAANSUhEUgAAARsAAACyCAMAAABFl5uBAAAAflBMVEX///8AAAD29vbJyckMDAxPT0/w8PDr6+uFhYXc3NweHh6mpqaOjo7S0tL7+/vn5+dra2utra1AQEBjY2MWFhY2Nja8vLydnZ2VlZUuLi60tLRTU1MTExPX19ckJCRDQ0N9fX1bW1uBgYF0dHTDw8OLi4s6OjorKytmZmYhISG9BDkgAAAH4UlEQVR4nO2d22KiMBCGAQUUBMQTHqpItda+/wuuQAJJCEi6xWCY76q4ZJv8zWEymYmaBgAAAAAAAAAAAAAAAAAAAAAAAAAAAAAAAABvgb2JzkszXsRmctmGU9nV6Qu+F83HOkOyHRmyKyad6eyb1QVz8XzZtZOIvz/UCZNxiyzZVZSEv48blUlxIlt2NWUwWjxVJuUnlF3Rl2NdWimTcjjKruxruTqtpXngyq7uK/kSUebBcjALurEUlEbX1wMxB63ny1OVD092tV+Btf6FNA9GsivePfYvpdF15XuO/5sBhVB9zhGfhkt2aq9W2/+Q5rE7V3nzeSUaGu7Pu6dqOEv3apaPkewGdIdB+COS9IPj7NSkzP2ajqIN8Ym68/GZaCXaBxiz2t3DEgtBfBZLq3vHeGTLix5gp7vO3WGy97zjA+8a3eOPhyVc2jPEoFJ2VFGOLMIvswmnzAoUXF3CqzWpKacQ5Lyh6wIFqcVt1ln9ZLL4rTYRVVDFjjOiZ1oBU4U2ir66q6I0GLd50L7kmSo47q6KsghoafRr+6KMibjprpKSiBhtJq1LsqqaHdZSDqxrQsDCNZmiqs3G7B9fxD1uMGX3ndVSDi7dvIVQYdoy0s+d1FAejN9G0MFJm0Yf3VRRGnREgOiWcU8rK7D+vwHW72ebFJ8urtYqfqQbJ+z5pU+It11UURrMbCrs26Sto3kXVZQGvUyJrVIptLaHDmooD/oAfClcnt6oimvbZ+ZU2+7C5Wltdh3UUB7Jn/abk1JnMbSDQny+uFLlHaW0ofvNWrg8bfyp1W/o+UbEIZpDr+FqzTcTWhtho58uf+uiitJgtuHCsTT0ZlMt7xZjF4uewDEeHLXsYo9unOg+PKSLq7WfYvbhoptN5oxCrX24xsRLXIQKsw5Vtfw3lXgtIX84U1g1vx97BJMIlL0yZcU6Xf9hh4XAUmWxmWeqnTOwh5O63ja/pRqPrNr5VGVQtXUaT29sOfVit6YVbfR7iw7gVlI51RtS5cnteFFE+H18PVmN9+xxb8prqvtS0Gpj+pp2LJs8v9Z1HsOLuEGkny+t9YtAc2pm1JKzz/risgKN9l/miieMruBMnIL9U5c08HHb2OCGhMX2sSlvBU7zyBYaytatZGTWJo2r2W0Ih3hq2JK7z6o/ZsNRJUOtLThB4RlNA9qIo4OqpePzdNFV8/iRGHjhOaVPo8J04Xgsai4cUDj5rhgqWU8JZqnN+73k7R74s7GyIyplhhr5jZ6nHhuuj+BmSR+UOnth8RPUzGeGP0+btaJrFKZIgH4SJ8rRZqxu8hQiQM6Kcdg4QDjaKDwPYwJs192io+37vj3lNbqqjUAg+/sSlAdxzm69c/QfzksVbQYhzcPMYYwXXugAo42jem54CX28zTv6p984DOluKWq/dOK8QGmjZq5dLeS44mnzSYyngd2b9OBaePUczr+W2gzq0qQC7PPkZdJhbc6K28K1+PvMT8o7VMn8gquvoSqTMZqsY95ewLrvlnu17y0BAODP8C3LMpR2Rv0Ow5sli91ut14c5uERBCoxtnRYyK1w89aqdJ5nFEt2sEwf7w3+YfTGm20nRtWrovLFeB9/xzW+UPResdvGh+cNvwXp/qdV75qwogzK7dg27BvHjDajttq8VSoV70Qy08NGD9ywkkFoY39wtMlCJ3B/yvaO/ixjiy3fQWhD+6TGRFfBKQ1ZECQ+DceT7xC0KSPXDpvcV2dvzvmVhThSNGs/0mY1JG3wuSXvbC6/4uec/TxEbeJ6aTQt+tF/trmJM0Bt8DRSF3VuMy86f6SN/wamNw5b43p4g5zsZ7Sgrzz0SYM2eSkkopE/GcUbsWaHF/MWz92+u8HQqdKa92dE+WErK20NlUcXVLXxCm2ORbEUFCa4LbRZl5mgPQ9AQUF83Lw4pI1jaYlOU2rjbhDbQhuk0kfeLdBcP6lciZfS7+ha1B3QvsAo0dppw1Jqs6K0+eJq0++IdXRwkB+bbE5rzGnzEm2cHjuY/TH59yNze90utSm3KT3uOAZVxVptZrFZhBqbZmxawtoQ881lFNhTfHNkj7POWmqj1do34tqgaz/QCXKPLUEf9e488POV2uAc6x7bgGguzi0NMp+jRht2z7CZIkJBbbBB3mNt0DRyzh6CyHXdWEgbjl3cThsDeah7vFDNiyYxn3SuzaL32uDMnzLM6lXa3HqvDZ4SywTnV2mDxlSP5xts/JVZTs3atPBRtJyLV73XpsgCMg36g//Wpm6vibRBPg9edFxvKK5HuOXuYn/ZqE0hxlNtkEuoog26Dg/ZC/2+FDHB4uinw32ZLLDzgdEG545dLD/z2dVrg73zZ0Pzrc2O1cbZW77me6h8v70UzCVAGFYbDe8PT6Z54/i2Sm2K3MX1wSyiJ0n/jWMeiu/76vnFONW7FbjaEDGy6XBp8InyvuiM79vSVz1ewjO4X79V0Ya8gqFZG94hco02/Q+33XM2jh6rDXkA2qxN5Zp9UhvqV71DWp7F3ObnzAifaGEzl9kcx9oYkzhtrU+EsDth1i0/sTZTIq8z6fuIyjGuW/zXTiL8FembMKXM9Zlus02QGRn438KidUb+jDKrRuesfziTkaHZrhu6U/TGY+4N3CT7PZe3Sj3z7cB+1stbH7r5dsP/ZVhvMJoAAAAAAAAAAAAAAAAAAAAAAAAAAAAAAADel38wWWCXqI3aeQAAAABJRU5ErkJggg==;rounded=1;strokeColor=#788AA3;fontColor=#46495D;fillColor=#B2C9AB;" vertex="1" parent="WIyWlLk6GJQsqaUBKTNV-1">
          <mxGeometry x="14.729999999999997" y="210" width="139.91" height="88" as="geometry" />
        </mxCell>
      </root>
    </mxGraphModel>
  </diagram>
</mxfile>
